<?xml version="1.0" encoding="UTF-8" standalone="no"?>
<!DOCTYPE svg PUBLIC "-//W3C//DTD SVG 1.1//EN"
 "http://www.w3.org/Graphics/SVG/1.1/DTD/svg11.dtd">
<!-- Generated by graphviz version 2.40.1 (20161225.0304)
 -->
<!-- Title: G Pages: 1 -->
<svg width="78pt" height="91pt"
 viewBox="0.00 0.00 77.60 90.80" xmlns="http://www.w3.org/2000/svg" xmlns:xlink="http://www.w3.org/1999/xlink">
<g id="graph0" class="graph" transform="scale(1 1) rotate(0) translate(4 86.8)">
<title>G</title>
<polygon fill="#ffffff" stroke="transparent" points="-4,4 -4,-86.8 73.6,-86.8 73.6,4 -4,4"/>
<!-- a -->
<g id="node1" class="node">
<title>a</title>
<ellipse fill="#000000" stroke="#000000" cx="34.8" cy="-81" rx="1.8" ry="1.8"/>
</g>
<!-- b -->
<g id="node2" class="node">
<title>b</title>
<ellipse fill="#000000" stroke="#000000" cx="23.8" cy="-41.4" rx="1.8" ry="1.8"/>
</g>
<!-- a&#45;&gt;b -->
<g id="edge1" class="edge">
<title>a&#45;&gt;b</title>
<path fill="none" stroke="#000000" stroke-width="1.4" d="M34.2086,-78.8709C32.8832,-74.0996 29.5931,-62.2551 27.0636,-53.149"/>
<polygon fill="#000000" stroke="#000000" stroke-width="1.4" points="24.3417,-43.3503 31.3541,-51.781 25.8727,-48.1143 27.211,-52.9319 27.0183,-52.9854 26.8255,-53.039 25.4873,-48.2214 22.6824,-54.1899 24.3417,-43.3503 24.3417,-43.3503"/>
</g>
<!-- c -->
<g id="node3" class="node">
<title>c</title>
<ellipse fill="#000000" stroke="#000000" cx="45.8" cy="-41.4" rx="1.8" ry="1.8"/>
</g>
<!-- a&#45;&gt;c -->
<g id="edge2" class="edge">
<title>a&#45;&gt;c</title>
<path fill="none" stroke="#000000" stroke-width="1.4" d="M35.3914,-78.8709C36.7168,-74.0996 40.0069,-62.2551 42.5364,-53.149"/>
<polygon fill="#000000" stroke="#000000" stroke-width="1.4" points="45.2583,-43.3503 46.9176,-54.1899 44.1127,-48.2214 42.7745,-53.039 42.5817,-52.9854 42.389,-52.9319 43.7273,-48.1143 38.2459,-51.781 45.2583,-43.3503 45.2583,-43.3503"/>
</g>
<!-- d -->
<g id="node4" class="node">
<title>d</title>
<ellipse fill="#000000" stroke="#000000" cx="1.8" cy="-1.8" rx="1.8" ry="1.8"/>
</g>
<!-- b&#45;&gt;d -->
<g id="edge3" class="edge">
<title>b&#45;&gt;d</title>
<path fill="none" stroke="#000000" stroke-width="1.4" d="M22.8547,-39.6984C20.282,-35.0675 12.9937,-21.9487 7.7123,-12.4422"/>
<polygon fill="#000000" stroke="#000000" stroke-width="1.4" points="2.7173,-3.4511 11.5075,-10.0073 5.3204,-7.7248 7.7486,-12.0956 7.5738,-12.1927 7.399,-12.2899 4.9707,-7.9191 3.6401,-14.3781 2.7173,-3.4511 2.7173,-3.4511"/>
</g>
<!-- e -->
<g id="node5" class="node">
<title>e</title>
<ellipse fill="#000000" stroke="#000000" cx="23.8" cy="-1.8" rx="1.8" ry="1.8"/>
</g>
<!-- b&#45;&gt;e -->
<g id="edge4" class="edge">
<title>b&#45;&gt;e</title>
<path fill="none" stroke="#000000" stroke-width="1.4" d="M23.8,-39.2709C23.8,-34.5538 23.8,-22.9234 23.8,-13.8605"/>
<polygon fill="#000000" stroke="#000000" stroke-width="1.4" points="23.8,-3.7503 28.3001,-13.7502 24,-8.7503 24.0001,-13.7503 23.8001,-13.7503 23.6001,-13.7503 23.6,-8.7503 19.3001,-13.7503 23.8,-3.7503 23.8,-3.7503"/>
</g>
<!-- f -->
<g id="node6" class="node">
<title>f</title>
<ellipse fill="#000000" stroke="#000000" cx="45.8" cy="-1.8" rx="1.8" ry="1.8"/>
</g>
<!-- c&#45;&gt;f -->
<g id="edge5" class="edge">
<title>c&#45;&gt;f</title>
<path fill="none" stroke="#000000" stroke-width="1.4" d="M45.8,-39.2709C45.8,-34.5538 45.8,-22.9234 45.8,-13.8605"/>
<polygon fill="#000000" stroke="#000000" stroke-width="1.4" points="45.8,-3.7503 50.3001,-13.7502 46,-8.7503 46.0001,-13.7503 45.8001,-13.7503 45.6001,-13.7503 45.6,-8.7503 41.3001,-13.7503 45.8,-3.7503 45.8,-3.7503"/>
</g>
<!-- g -->
<g id="node7" class="node">
<title>g</title>
<ellipse fill="#000000" stroke="#000000" cx="67.8" cy="-1.8" rx="1.8" ry="1.8"/>
</g>
<!-- c&#45;&gt;g -->
<g id="edge6" class="edge">
<title>c&#45;&gt;g</title>
<path fill="none" stroke="#000000" stroke-width="1.4" d="M46.7453,-39.6984C49.318,-35.0675 56.6063,-21.9487 61.8877,-12.4422"/>
<polygon fill="#000000" stroke="#000000" stroke-width="1.4" points="66.8827,-3.4511 65.9599,-14.3781 64.6293,-7.9191 62.201,-12.2899 62.0262,-12.1927 61.8514,-12.0956 64.2796,-7.7248 58.0925,-10.0073 66.8827,-3.4511 66.8827,-3.4511"/>
</g>
</g>
</svg>
